<?xml version="1.0" encoding="UTF-8"?>
<svg width="700pt" height="700pt" version="1.1" viewBox="0 0 700 700" xmlns="http://www.w3.org/2000/svg">
 <path d="m294 126h-47.602c-20.996 0-31.496 0-38.855 5.3477-2.3789 1.7266-4.4688 3.8164-6.1953 6.1953-5.3477 7.3594-5.3477 17.859-5.3477 38.855v19.602h28.699l9.7109 194.18c1.5 30.059 2.2539 45.09 10.316 55.52 2.6133 3.375 5.7227 6.332 9.2227 8.7695 10.82 7.5352 25.867 7.5352 55.965 7.5352h80.172c30.098 0 45.145 0 55.965-7.5352 3.5-2.4375 6.6094-5.3945 9.2227-8.7695 8.0625-10.43 8.8164-25.461 10.316-55.52l9.7109-194.18h28.699v-19.602c0-20.996 0-31.496-5.3477-38.855-1.7266-2.3789-3.8164-4.4688-6.1953-6.1953-7.3594-5.3477-17.859-5.3477-38.855-5.3477h-47.602c0-13.047 0-19.57-2.1289-24.715-2.8438-6.8594-8.2969-12.312-15.156-15.152-5.1445-2.1328-11.668-2.1328-24.715-2.1328h-28c-13.047 0-19.57 0-24.715 2.1328-6.8594 2.8398-12.312 8.293-15.156 15.152-2.1289 5.1445-2.1289 11.668-2.1289 24.715zm14 0v-2.8008c0-10.5 0-15.75 2.6758-19.43 0.86328-1.1875 1.9062-2.2305 3.0938-3.0977 3.6836-2.6719 8.9336-2.6719 19.43-2.6719h33.602c10.496 0 15.746 0 19.43 2.6719 1.1875 0.86719 2.2305 1.9102 3.0938 3.0977 2.6758 3.6797 2.6758 8.9297 2.6758 19.43v2.8008zm145.6 14h-207.2c-10.809 0-17.793 0.019531-23.035 0.58594-4.9766 0.54297-6.6953 1.4375-7.5938 2.0898-1.1875 0.86328-2.2305 1.9062-3.0938 3.0938-0.65234 0.89844-1.5469 2.6172-2.0898 7.5938-0.56641 5.2422-0.58594 12.227-0.58594 23.035v5.6016h280v-5.6016c0-10.809-0.019531-17.793-0.58594-23.035-0.54297-4.9766-1.4375-6.6953-2.0898-7.5938-0.86328-1.1875-1.9062-2.2305-3.0938-3.0938-0.89844-0.65234-2.6172-1.5469-7.5938-2.0898-5.2422-0.56641-12.227-0.58594-23.035-0.58594zm-205.21 249.48-9.6719-193.48h222.56l-9.6719 193.48c-0.76562 15.332-1.3047 25.734-2.5469 33.648-1.1992 7.6523-2.8555 11.406-4.8672 14.004-1.7383 2.25-3.8125 4.2227-6.1445 5.8477-2.6992 1.8789-6.5273 3.3438-14.23 4.1602-7.9688 0.84375-18.383 0.86328-33.734 0.86328h-80.172c-15.352 0-25.766-0.019531-33.734-0.86328-7.7031-0.81641-11.531-2.2812-14.23-4.1602-2.332-1.625-4.4062-3.5977-6.1445-5.8477-2.0117-2.5977-3.668-6.3516-4.8672-14.004-1.2422-7.9141-1.7812-18.316-2.5469-33.648z" fill-rule="evenodd"/>
</svg>
